<?xml version="1.0" encoding="UTF-8" standalone="no"?>
<svg
   xml:space="preserve"
   viewBox="0 0 113.4 147.4"
   version="1.1"
   id="svg3"
   sodipodi:docname="fhstp_logo.svg"
   inkscape:version="1.4 (86a8ad7, 2024-10-11)"
   xmlns:inkscape="http://www.inkscape.org/namespaces/inkscape"
   xmlns:sodipodi="http://sodipodi.sourceforge.net/DTD/sodipodi-0.dtd"
   xmlns="http://www.w3.org/2000/svg"
   xmlns:svg="http://www.w3.org/2000/svg"><defs
     id="defs3" /><sodipodi:namedview
     id="namedview3"
     pagecolor="#ffffff"
     bordercolor="#000000"
     borderopacity="0.25"
     inkscape:showpageshadow="2"
     inkscape:pageopacity="0.0"
     inkscape:pagecheckerboard="0"
     inkscape:deskcolor="#d1d1d1"
     inkscape:zoom="3.0783583"
     inkscape:cx="-192.63514"
     inkscape:cy="-26.47515"
     inkscape:window-width="3840"
     inkscape:window-height="2054"
     inkscape:window-x="-11"
     inkscape:window-y="-11"
     inkscape:window-maximized="1"
     inkscape:current-layer="svg3" /><path
     fill="#fff"
     d="M0 113.4h113.4v34H0z"
     id="path1" /><path
     fill="#005096"
     d="M0 0h113.4v113.4H0zM14.1 125.6c0 1.9-1.1 2.9-2.8 2.9-1.7 0-2.8-1-2.8-2.9V122h1.1v3.7c0 1.2.6 1.9 1.6 1.9s1.6-.6 1.6-1.8V122h1.1zm6.4-3.6h1.1v6.5h-1l-3.6-4.6v4.6h-1.1V122H17l3.5 4.5zm4.1 0v6.5h-1.1V122zm6.5 0h1.2l-2.7 6.6h-1l-2.7-6.6h1.3l2 5zm7.2 1h-3.7v1.7h3.3v1h-3.3v1.7h3.7v1h-4.9V122h4.8v1zm5.8 5.5-1.6-2.3h-1.4v2.3H40V122h2.9c1.5 0 2.4.8 2.4 2.1 0 1.1-.6 1.7-1.6 2l1.8 2.5h-1.4zm-1.3-5.5h-1.7v2.2h1.7c.8 0 1.3-.4 1.3-1.1 0-.7-.5-1.1-1.3-1.1m6.5 1.7c1.4.3 2.1.8 2.1 1.9 0 1.2-1 2-2.3 2-1 0-2-.4-2.7-1l.7-.8c.6.5 1.2.8 2.1.8.7 0 1.2-.3 1.2-.8s-.3-.7-1.5-1c-1.4-.3-2.2-.7-2.2-2 0-1.1.9-1.9 2.2-1.9.9 0 1.7.3 2.4.8l-.6.9c-.6-.4-1.2-.7-1.8-.7-.7 0-1.1.3-1.1.8-.1.5.2.7 1.5 1m4.8-2.7v6.5H53V122zm4.5 6.5h-1.2V123h-2.1v-1h5.3v1.1h-2.1zm6.7 0h-1.2v-2.6l-2.6-3.9h1.3l1.8 2.9 1.8-2.9h1.3l-2.6 3.9zm9.5.1c-2 0-3.4-1.5-3.4-3.4s1.4-3.4 3.4-3.4 3.4 1.5 3.4 3.4-1.4 3.4-3.4 3.4m0-5.7c-1.3 0-2.2 1-2.2 2.3s.9 2.3 2.2 2.3c1.3 0 2.2-1 2.2-2.3s-.9-2.3-2.2-2.3m9.8.1h-3.7v1.8h3.3v1h-3.3v2.6h-1.1V122h4.8zm-69.7 15.7h-1.2l-.7-1.6H9.9l-.7 1.6H8.1l2.9-6.6h1zm-3.5-5.2-1.1 2.6h2.2zm7.1 3.1h-1.3v2.1h-1.1v-6.5h2.6c1.5 0 2.5.9 2.5 2.2-.1 1.5-1.2 2.2-2.7 2.2m.1-3.4h-1.3v2.3h1.3c.9 0 1.4-.5 1.4-1.2s-.6-1.1-1.4-1.1m6.3 3.4h-1.3v2.1h-1.1v-6.5H25c1.5 0 2.5.9 2.5 2.2 0 1.5-1.2 2.2-2.6 2.2m0-3.4h-1.3v2.3h1.3c.9 0 1.4-.5 1.4-1.2s-.5-1.1-1.4-1.1m3.9-1h1.1v5.5h3.4v1h-4.6zm7 0v6.5h-1.1v-6.5zm6.7 1h-3.7v1.7h3.3v1h-3.3v1.7h3.7v1h-4.9v-6.5h4.8zm4 5.5h-2.4v-6.5h2.4c2 0 3.5 1.4 3.5 3.2s-1.4 3.3-3.5 3.3m0-5.5h-1.3v4.4h1.3c1.4 0 2.3-.9 2.3-2.2s-.9-2.2-2.3-2.2m10.2 1.7c1.4.3 2.1.8 2.1 1.9 0 1.2-1 2-2.3 2-1 0-2-.4-2.7-1l.7-.8c.6.5 1.2.8 2.1.8.7 0 1.2-.3 1.2-.8s-.3-.7-1.5-1c-1.4-.3-2.2-.7-2.2-2 0-1.1.9-1.9 2.2-1.9.9 0 1.7.3 2.4.8l-.6.9c-.6-.4-1.2-.7-1.8-.7-.7 0-1.1.3-1.1.8-.1.5.2.7 1.5 1m6.5 3.9c-1.9 0-3.3-1.5-3.3-3.4s1.4-3.4 3.4-3.4c1.2 0 1.9.4 2.5 1l-.7.8c-.5-.5-1.1-.8-1.8-.8-1.2 0-2.1 1-2.1 2.3s.9 2.3 2.1 2.3c.8 0 1.3-.3 1.9-.8l.7.7c-.7.9-1.5 1.3-2.7 1.3m5.1-6.6v6.5h-1.1v-6.5zm6.8 1h-3.7v1.7h3.3v1h-3.3v1.7h3.7v1h-4.9v-6.5H75zm6.1-1h1.1v6.5h-1l-3.6-4.6v4.6h-1.1v-6.5h1.1l3.5 4.5zm6 6.6c-1.9 0-3.3-1.5-3.3-3.4s1.4-3.4 3.4-3.4c1.2 0 1.9.4 2.5 1l-.7.8c-.5-.5-1.1-.8-1.8-.8-1.2 0-2.1 1-2.1 2.3s.9 2.3 2.1 2.3c.8 0 1.3-.3 1.9-.8l.7.7c-.7.9-1.5 1.3-2.7 1.3m8.8-5.6h-3.7v1.7h3.3v1h-3.3v1.7H96v1h-4.9v-6.5H96zm4.1 1.7c1.4.3 2.1.8 2.1 1.9 0 1.2-1 2-2.3 2-1 0-2-.4-2.7-1l.7-.8c.6.5 1.2.8 2.1.8.7 0 1.2-.3 1.2-.8s-.3-.7-1.5-1c-1.4-.3-2.2-.7-2.2-2 0-1.1.9-1.9 2.2-1.9.9 0 1.7.3 2.4.8l-.6.9c-.6-.4-1.2-.7-1.8-.7-.7 0-1.1.3-1.1.8-.1.5.2.7 1.5 1"
     id="path2" /><path
     fill="#fff"
     d="M24.2 72.1h-2.6v-3.5h2.6c0-4.7 1.6-6.2 6.2-6.2.9 0 1.7.1 2.6.1v3.8c-.5-.1-1-.1-1.5-.1-1.2 0-2 .2-2 1.6v.7h3.2V72h-3.2v13h-5.4zm12.9-9.7h5.4v8.4h.1c.8-1.7 3-2.7 5-2.7 5.5 0 5.9 4 5.9 6.4V85h-5.4v-8c0-2.3.3-4.5-2.7-4.5-2 0-2.9 1.7-2.9 3.5v9h-5.4zm27.2 0h5.2L64.7 85h-5.2zm11.4 0h5.2L76 85h-5.2zm11.3 0h5.2L87.4 85h-5.2zm-73.7 0h5.2L13.7 85H8.5zm25.4 37.1c0 .9.8 1.3 1.6 1.3.6 0 1.4-.2 1.4-1 0-.6-.9-.9-2.4-1.2-1.2-.3-2.5-.7-2.5-2.1 0-2 1.7-2.5 3.4-2.5s3.3.6 3.4 2.5h-2c-.1-.8-.7-1.1-1.5-1.1-.5 0-1.2.1-1.2.7 0 .8 1.2.9 2.4 1.2 1.2.3 2.5.7 2.5 2.2 0 2-1.8 2.7-3.5 2.7-1.8 0-3.6-.7-3.6-2.7zm9.5-5.2h1.6v1.4h-1.6v3.8c0 .7.2.9.9.9.2 0 .4 0 .7-.1v1.7c-.4.1-.8.1-1.2.1-1.3 0-2.4-.3-2.4-1.8v-4.6h-1.3v-1.4h1.3V92h2.1zm3.3 5.4h2.4v2.3h-2.4zm5.8-5.4h2v1c.5-.8 1.3-1.2 2.3-1.2 2.4 0 3.5 2 3.5 4.2 0 2.1-1.1 4-3.4 4-.9 0-1.8-.4-2.3-1.2v3.7h-2.1zm5.7 3.9c0-1.2-.5-2.5-1.9-2.5s-1.8 1.2-1.8 2.5.5 2.5 1.9 2.5c1.4-.1 1.8-1.3 1.8-2.5m7.5-4.2c2.4 0 4 1.6 4 4.1 0 2.5-1.6 4.1-4 4.1s-4-1.6-4-4.1c0-2.4 1.6-4.1 4-4.1m-2.6-2.7h2v1.8h-2zm2.6 9.3c1.5 0 1.9-1.2 1.9-2.5 0-1.2-.4-2.5-1.9-2.5-1.4 0-1.9 1.2-1.9 2.5s.4 2.5 1.9 2.5m.5-9.3h2v1.8h-2zm5.2 0h2.1V102h-2.1zm6.8 3h1.6v1.4H83v3.8c0 .7.2.9.9.9.2 0 .4 0 .7-.1v1.7c-.4.1-.8.1-1.2.1-1.3 0-2.4-.3-2.4-1.8v-4.6h-1.3v-1.4H81V92h2zm4.6 4.4c.1 1.3.7 2 1.9 2 .9 0 1.5-.5 1.7-1H93c-.6 1.8-1.9 2.6-3.6 2.6-2.4 0-4-1.7-4-4.1 0-2.3 1.6-4.1 4-4.1 2.6 0 3.9 2.2 3.8 4.6zm3.4-1.4c-.2-1.1-.7-1.6-1.7-1.6-1.3 0-1.7 1.1-1.8 1.6zm3.7-3h2v1.1c.5-.9 1.5-1.3 2.4-1.3 2.3 0 2.8 1.3 2.8 3.2v4.8h-2.1v-4.4c0-1.3-.4-1.9-1.4-1.9-1.2 0-1.7.6-1.7 2.2v4.1h-2.1z"
     id="path3" /></svg>
